<svg width="16" height="16" fill="none" xmlns="http://www.w3.org/2000/svg"><path d="M16 8a7.948 7.948 0 01-2.343 5.657A7.948 7.948 0 018 16a7.948 7.948 0 01-4.172-1.171l.917-.918A6.708 6.708 0 008 14.75 6.758 6.758 0 0014.75 8c0-1.18-.305-2.29-.838-3.255l.917-.917A7.948 7.948 0 0116 8zM.91 15.973l-.883-.884 1.891-1.891A7.94 7.94 0 010 8c0-2.137.832-4.146 2.343-5.657A7.948 7.948 0 018 0a7.94 7.94 0 015.198 1.918L15.089.027l.884.884L.911 15.973zm1.898-3.665l9.5-9.5A6.719 6.719 0 008 1.25 6.758 6.758 0 001.25 8c0 1.636.586 3.139 1.558 4.308z" fill="#777"/></svg>
