<svg width="484" height="151" fill="none" xmlns="http://www.w3.org/2000/svg"><g opacity=".15" fill-rule="evenodd" clip-rule="evenodd"><path d="M370.83 52.052c9.242 11.032 7.183 39.54-3.192 47.43-5.77-16.302-3.743-31.774 3.192-47.43zm-41.619 65.161c-8.5-17.97-4.749-69.242 2.202-82.35 13.679 18.196 12.65 61.702-2.202 82.35zM91.007 43.858c11.524-.025 19.633 8.26 19.641 20.05.008 11.612-8.484 20.327-19.68 20.19-11.222-.129-19.179-8.403-19.25-19.984-.08-12.013 7.757-20.23 19.289-20.256zM285.579 19.65c22.882 30.757 18.013 89.688-3.024 111.859 1.013-37.259 2.003-73.97 3.024-111.859zm-131.468-7.422c27.877 40.392 20.16 99.441-2.953 124.13 6.01-42.036 4.517-83.058 2.953-124.13zm80.231 126.223c7.526-42.25 7.973-84.081 7.87-127.197 22.793 31.821 20.622 99.616-7.87 127.197zm-40.231 1.189c3.935-43.075 11.07-86.094 2.929-129.465 28.683 31.933 24.789 92.565-2.929 129.465zm256.105-61.508c13.248-8.14 23.28-18.708 29.976-32.158 8.818-17.756 2.075-29.16-17.694-30.901-10.582-.936-20.455 1.429-29.305 6.82-8.133 4.946-15.619 10.967-23.336 16.59-2.059 1.5-3.903 3.282-5.89 4.895-7.997 6.44-16.337 7.326-25.826 2.867-17.278-8.115-34.501-16.548-52.362-23.2C288.014 8.985 248.636 2.259 208.421.415 147.455-2.396 89.163 9.12 33.401 33.593c-8.803 3.866-16.8 9.626-25.027 14.746-1.98 1.223-3.56 3.22-4.988 5.104-4.797 6.262-4.613 12.724 1.292 17.947 45.148 39.986 95.196 70.353 156.568 77.164 59.489 6.59 117.446.234 172.809-23.584 15.18-6.518 29.744-14.505 44.565-21.872 4.708-2.34 9.393-4.742 13.95-7.347 2.77-1.588 4.015-.743 5.643 1.775 4.509 6.939 8.89 14.065 14.238 20.327 10.614 12.427 24.261 17.188 40.382 13.441 11.413-2.643 16.457-10.496 14.565-21.987-2.035-12.293-8.651-22.111-17.182-31.175z" fill="#FAB751"/><path d="M194.112 139.64c27.717-36.9 31.612-97.532 2.929-129.465 8.14 43.371 1.005 86.39-2.929 129.465zM234.342 138.452c28.492-27.581 30.663-95.377 7.869-127.198.104 43.116-.343 84.946-7.869 127.198zM154.112 12.228c1.564 41.072 3.056 82.094-2.953 124.131 23.112-24.689 30.83-83.739 2.953-124.13zM285.579 19.65c-1.021 37.89-2.011 74.6-3.025 111.86 21.038-22.171 25.906-81.102 3.025-111.86zM91.007 43.858c-11.532.025-19.37 8.243-19.29 20.255.073 11.582 8.03 19.856 19.25 19.984 11.198.137 19.689-8.577 19.681-20.19-.008-11.79-8.116-20.074-19.64-20.049zM329.211 117.214c14.852-20.649 15.882-64.154 2.203-82.35-6.951 13.107-10.702 64.378-2.203 82.35zM370.831 52.05c-6.944 15.657-8.963 31.13-3.193 47.432 10.375-7.891 12.434-36.399 3.193-47.431z" fill="#fff"/></g></svg>
