<svg width="91" height="91" fill="none" xmlns="http://www.w3.org/2000/svg"><rect width="91" height="91" rx="45.5" fill="#FAC663"/><path d="M40.074 37.775a4.682 4.682 0 00-.373 1.863c.006 1.292.546 2.518 1.518 3.452a5.478 5.478 0 003.651 1.508 5.634 5.634 0 003.044-.787 5.623 5.623 0 003.043.787 5.485 5.485 0 003.625-1.483c.97-.918 1.518-2.127 1.544-3.407a4.673 4.673 0 00-.537-2.28c-.34-.654-3.1-3.484-4.076-4.521-.244-.26.412.649.134.877-.277.229-1.182-.134-.938.126.883.939 3.392 3.523 3.676 4.067.278.533.413 1.108.401 1.708-.04 1.992-1.74 3.6-3.87 3.661a4.186 4.186 0 01-2.588-.795.707.707 0 00-.828 0 4.19 4.19 0 01-2.589.795c-2.123-.06-3.86-1.726-3.87-3.714a3.506 3.506 0 01.279-1.395c.435-1.026 1.374-2.185 3.143-3.876 1.661-1.589 4.346-1.783 6.246-.451a.701.701 0 00.938-.126.6.6 0 00-.134-.877c-2.436-1.707-5.879-1.459-8.008.578-1.926 1.842-2.92 3.085-3.43 4.29zM44.377 31.476c1.722 0 3.123-1.677 3.123-3.738S46.1 24 44.377 24c-1.722 0-3.123 1.677-3.123 3.738 0 2.06 1.401 3.738 3.123 3.738zm0-6.223c.967 0 1.783 1.138 1.783 2.485s-.816 2.485-1.783 2.485c-.966 0-1.783-1.138-1.783-2.485s.817-2.485 1.783-2.485z" fill="#FFFDFB"/><path d="M44.377 25.253c.967 0 1.783 1.138 1.783 2.485s-.816 2.485-1.783 2.485c-.966 0-1.783-1.138-1.783-2.485s.817-2.485 1.783-2.485zM37.979 35.955c1.39 0 2.478-1.282 2.478-2.92 0-1.637-1.089-2.92-2.478-2.92-1.39 0-2.478 1.283-2.478 2.92 0 1.638 1.088 2.92 2.478 2.92zm0-4.587c.617 0 1.138.764 1.138 1.667 0 .904-.521 1.667-1.138 1.667-.617 0-1.138-.763-1.138-1.667 0-.903.52-1.667 1.138-1.667z" fill="#FFFDFB"/><path d="M37.979 31.368c.617 0 1.138.764 1.138 1.667 0 .904-.521 1.667-1.138 1.667-.617 0-1.138-.763-1.138-1.667 0-.903.52-1.667 1.138-1.667zM57.594 35.955c1.39 0 2.478-1.282 2.478-2.92 0-1.637-1.089-2.92-2.478-2.92-1.39 0-2.479 1.283-2.479 2.92 0 1.638 1.089 2.92 2.479 2.92zm0-4.587c.617 0 1.138.764 1.138 1.667 0 .904-.521 1.667-1.138 1.667-.617 0-1.138-.763-1.138-1.667 0-.903.52-1.667 1.138-1.667z" fill="#FFFDFB"/><path d="M57.594 31.368c.617 0 1.138.764 1.138 1.667 0 .904-.521 1.667-1.138 1.667-.617 0-1.138-.763-1.138-1.667 0-.903.52-1.667 1.138-1.667zM52.219 31.476c1.722 0 3.123-1.677 3.123-3.738S53.94 24 52.219 24c-1.722 0-3.123 1.677-3.123 3.738 0 2.06 1.4 3.738 3.123 3.738zm0-6.223c.966 0 1.783 1.138 1.783 2.485s-.817 2.485-1.783 2.485c-.967 0-1.783-1.138-1.783-2.485s.816-2.485 1.783-2.485z" fill="#FFFDFB"/><path d="M52.219 25.253c.966 0 1.783 1.138 1.783 2.485s-.817 2.485-1.783 2.485c-.967 0-1.783-1.138-1.783-2.485s.816-2.485 1.783-2.485zM64.948 43.938a3.703 3.703 0 00-2.543-.985c-.96 0-1.864.35-2.543.985l-3.944 3.688a3.704 3.704 0 00-2.662-1.105h-5.649c-.37 0 .707.28.707.627 0 .346-1.077.626-.707.626h5.649c1.244 0 2.257.947 2.257 2.11 0 1.163-1.013 2.11-2.257 2.11h-5.649c-.37 0-.67.28-.67.626s.3.627.67.627h5.649c1.983 0 3.597-1.509 3.597-3.363 0-.406-.078-.796-.22-1.157.008-.006.016-.012.023-.02l4.154-3.883c.88-.822 2.311-.822 3.19 0 .88.823.88 2.162 0 2.984l-8.326 7.785h-7.68c-.37 0 .32.28.32.627 0 .346-.37.626 0 .626h7.638a.694.694 0 00.474-.183l8.522-7.969c1.403-1.31 1.403-3.444 0-4.756z" fill="#FFFDFB"/><path d="M48.486 55.593h-3.05a.694.694 0 00-.471.181l-2.107 1.946-5.149-4.814a3.823 3.823 0 01-.148-1.056c0-2.242 1.95-4.066 4.348-4.066.04 0 .078-.003.116-.01h5.89c.37 0 .67-.28.67-.626s-.3-.627-.67-.627h-6.536a.703.703 0 00-.301.068c-2.687.37-4.767 2.5-4.853 5.093l-.541-.506a.703.703 0 00-.948 0l-3.55 3.32a.61.61 0 00-.062.067l-5.943 6.217a.603.603 0 00-.17.416L25 66.344c0 .345.298.626.668.627L36.71 67h.002a.694.694 0 00.474-.183l7.14-6.676a.606.606 0 00.196-.443.606.606 0 00-.197-.443l-.608-.568 1.994-1.84h2.775c.37 0 .67-.281.67-.627s-.3-.627-.67-.627zm-12.05 10.153L26.34 65.72l.009-4.283 5.34-5.585 7.663 7.166-2.918 2.728zm3.906-3.653L32.648 54.9l2.562-2.395 7.694 7.193-2.562 2.395z" fill="#FFFDFB"/></svg>
