<svg width="369" height="317" fill="none" xmlns="http://www.w3.org/2000/svg"><path d="M74.262 115.554c51.916 29.469 43.41 116.072-12.785 116.277-24.237.089-45.279-18.021-54.704-41.238-21.765-53.621 22.917-100.348 67.49-75.039zM127.51 126.079c-62.16.228-81.157-105.066-22.166-122.604 26.876-7.988 57.54 10.83 67.494 45.399 11.168 38.746-10.383 77.077-45.328 77.205z" fill="#FAC663" fill-opacity=".15"/><path d="M144.184 313.568c8.623-2.414 23.938-4.005 39.974-4.285 16.951-.31 34.703.838 46.198 3.969 31.045 8.51 73.169-12.509 63.751-55.808-8.711-40.029-39.475-37.634-46.891-75.573-7.473-38.342-36.035-56.755-63.727-55.206-25.63 1.437-50.511 19.981-57.178 55.658-7.096 38.018-37.813 35.826-46.219 75.905-9.134 43.402 33.232 63.998 64.092 55.34zM236.909 125.682c-17.582.064-32.72-10.073-41.168-25.643-25.114-46.298 15.618-110.668 62.439-97.086 59.22 17.153 40.854 122.502-21.271 122.729z" fill="#FAC663" fill-opacity=".15"/><path d="M265.265 196.588C245.128 147.916 292.219 88.2 337.47 106.77c54.508 22.365 30.86 119.773-28.983 119.992-19.204.071-35.568-11.671-43.222-30.174z" fill="#FAC663" fill-opacity=".15"/></svg>
