<svg width="16" height="12" fill="none" xmlns="http://www.w3.org/2000/svg"><path d="M15.995 3.362C15.903 1.477 14.458 0 12.705 0h-9.41C1.542 0 .097 1.477.005 3.362.002 3.425 0 10.377 0 10.377 0 11.272.675 12 1.505 12h12.99c.83 0 1.505-.728 1.505-1.623 0 0-.002-6.952-.005-7.015zM3.295.75h9.41c1.258 0 2.315.964 2.55 2.257h-.715c-.224-.885-.966-1.507-1.835-1.507H8.148c-.192 0 .348.168.348.375s-.54.375-.348.375h4.557c.483 0 .905.304 1.098.757h-.347c-.867 0-1.579.734-1.627 1.657a11.937 11.937 0 00-3.83-.621c-1.306 0-2.612.207-3.828.62-.048-.922-.76-1.656-1.628-1.656h-.346c.192-.453.614-.757 1.098-.757h4.853c.192 0 .348-.168.348-.375S8.34 1.5 8.148 1.5H3.295c-.869 0-1.611.622-1.835 1.507H.745C.98 1.714 2.037.75 3.295.75zm8.531 4.702v1.273c0 .556-.42 1.008-.935 1.008H5.11c-.516 0-.935-.452-.935-1.008V5.452c2.414-.88 5.238-.88 7.652 0zm3.478 4.925c0 .481-.363.873-.809.873H1.505c-.446 0-.81-.392-.81-.873V3.757h1.848c.516 0 .935.452.935 1.008v1.96c0 .97.732 1.758 1.63 1.758h6.32c.4 0 1.094-.474 1.094-1.758v-1.96c0-.556.419-1.008.934-1.008h1.848v6.62z" fill="#777"/></svg>
