<svg width="91" height="91" fill="none" xmlns="http://www.w3.org/2000/svg"><rect width="91" height="91" rx="45.5" fill="#FAC663"/><path d="M60.18 30.639a.82.82 0 010 1.639h-7.328a.82.82 0 110-1.64h7.329zm-2.94 4.518a.82.82 0 00-.82-.82h-3.568a.82.82 0 100 1.64h3.568a.82.82 0 00.82-.82zm-5.207 3.698c0 .453.367.82.82.82h7.328a.82.82 0 000-1.64h-7.329a.82.82 0 00-.82.82zm5.206 3.7a.82.82 0 00-.819-.82h-3.568a.82.82 0 100 1.64h3.568a.82.82 0 00.82-.82zm-5.206 3.698c0 .453.367.82.82.82h7.328a.82.82 0 100-1.64h-7.329a.82.82 0 00-.82.82zm1.398 14.88C53.43 67.678 48.175 73 41.715 73 35.255 73 30 67.677 30 61.134c0-4.24 2.198-8.094 5.785-10.226V24.006c0-3.312 2.66-6.006 5.93-6.006 3.27 0 5.93 2.694 5.93 6.006v26.902c3.587 2.13 5.785 5.984 5.785 10.226zm-1.626 0c0-3.597-1.974-7.555-5.152-9.19l-.633-.325v-27.61c0-2.02-2.311-4.368-4.305-4.368-1.993 0-4.305 2.347-4.305 4.368v27.61l-.632.325c-3.179 1.637-5.153 5.594-5.153 9.19 0 5.251 4.907 10.228 10.09 10.228 5.184 0 10.09-4.977 10.09-10.227zm-2.616 0c0 4.174-3.352 7.57-7.474 7.57-4.12 0-7.472-3.396-7.472-7.57 0-3.42 2.97-6.424 6.238-7.304l.43-.116V40.062a.805.805 0 011.61 0v13.65l.43.117c3.268.88 6.238 3.885 6.238 7.305zm-6.445-5.056c-.178-.802-.944-.613-1.755-.425-2.832.65-4.811 3.158-4.811 6.102 0 .834 0 1.727 1.055 1.727.56 0 .69-.93.69-1.763 0-1.497.914-3.73 3.066-4.23.8-.187 1.936-.6 1.755-1.411z" fill="#FFFDFB"/></svg>
