<svg width="16" height="16" fill="none" xmlns="http://www.w3.org/2000/svg"><path d="M14.528 13.054H10.49a7 7 0 003.5-6.058A7.004 7.004 0 006.997 0 7.004 7.004 0 000 6.996a7.004 7.004 0 006.996 6.996h7.532a.536.536 0 010 1.07H8A.469.469 0 108 16h6.528a1.472 1.472 0 100-2.946zm-7.532 0c-.262 0-.52-.017-.774-.05l5.122-2.956.646.373a6.056 6.056 0 01-4.994 2.633zM3.598 12.01L9.17 8.792l1.236.714-5.5 3.176a6.043 6.043 0 01-1.308-.673zm-.482-9.663a6.075 6.075 0 011.237-.8V7.98l-1.237.714V2.346zm2.175-1.164c.396-.116.81-.194 1.236-.227v5.77l-1.236.714V1.182zm7.763 5.814c0 .147-.005.292-.016.437L7.465 4.215V2.787l5.5 3.176c.059.336.09.68.09 1.033zm-5.59-1.699l5.42 3.129c-.1.412-.243.809-.423 1.184L7.465 6.725V5.297zm5.122-.636L7.465 1.704V.955a6.072 6.072 0 015.121 3.706zM2.18 3.326v5.91l-.648.374a6.022 6.022 0 01-.593-2.614c0-1.379.463-2.65 1.241-3.67zm-.178 7.095l4.995-2.884 1.236.714-5.415 3.127A6.109 6.109 0 012 10.42z" fill="#777"/></svg>
