<svg width="14" height="16" fill="none" xmlns="http://www.w3.org/2000/svg"><path d="M13.228 13.612H8.897V2.388h1.694v4.44c-.51.118-.891.599-.891 1.172 0 .662.509 1.2 1.135 1.2S11.97 8.662 11.97 8c0-.573-.382-1.054-.89-1.172v-4.44h1.488c.425 0 .772-.366.772-.816V.816c0-.45-.347-.816-.773-.816H1.433C1.007 0 .66.366.66.816v.756c0 .45.347.816.773.816h3.67v11.224H.773c-.427 0-.773.366-.773.816v.755c0 .45.346.817.772.817h12.456c.426 0 .772-.366.772-.816v-.756c0-.45-.346-.816-.772-.816zM11.482 8c0 .377-.29.684-.647.684-.357 0-.647-.307-.647-.684 0-.377.29-.684.647-.684.357 0 .647.307.647.684zM1.432 1.572V.816c0-.165.24-.222.396-.222h10.575c.157 0 .284.057.284.222v.756c0 .165-.127.21-.284.21H1.828c-.157 0-.395-.045-.395-.21zM5.735 11.78h.274s.244-.115.244-.258a.251.251 0 00-.244-.258h-.274V9.432H8.31c.135 0 .96-.147.312-.29.648-.142-.177-.226-.312-.226H5.734V7.084h2.258c.135 0-.244-.115-.244-.258 0-.143.379-.258.244-.258H5.734v-4.18H8.31V4.22H5.521c-.134 0 0-.027 0 .115 0 .401-.142.401-.142.401H8.31v1.832h-.318a.251.251 0 00-.244.258c0 .143.11.258.244.258h.318v4.18H6.008c-.135 0 .244.115.244.258 0 .143-.379.258-.244.258H8.31v1.832H5.734V11.78zm7.669 3.404c0 .165-.246.207-.403.207H.91c-.158 0-.285-.042-.285-.207v-.756c0-.165.127-.21.284-.21h12.21c.156 0 .284.045.284.21v.756z" fill="#777"/></svg>