<svg width="91" height="91" fill="none" xmlns="http://www.w3.org/2000/svg"><rect width="91" height="91" rx="45.5" fill="#FAC663"/><path d="M47.159 46.617c3.275 0 5.955 3.443 5.955 4.303 0 .86-2.68 3.73-5.955 3.73-3.276 0-5.657-3.73-5.657-3.73s2.381-4.303 5.657-4.303z" fill="#FFFDFB"/><path d="M37.928 47.478l3.574 3.442m0 0l-3.574 3.443m3.574-3.443s2.381 3.73 5.657 3.73c3.275 0 5.955-2.87 5.955-3.73 0-.86-2.68-4.303-5.955-4.303-3.276 0-5.657 4.303-5.657 4.303z" stroke="#FFFDFB" stroke-width="2" stroke-linecap="round" stroke-linejoin="round"/><path d="M68.163 38.96h0c-.07-.476-.503-.856-1.042-.856h-4.472l-.09-.387c-.65-2.81-3.22-3.654-3.515-3.748l-.197-.063-.095-.183c-1.39-2.682-4.26-2.816-4.581-2.827l-.203-.007-.14-.146c-1.699-1.764-3.998-1.782-5.231-1.477l-.195.049-.174-.1c-1.093-.626-3.306-1.232-5.456 0l-.174.1-.195-.049c-1.233-.305-3.533-.287-5.23 1.477l-.142.146-.202.007c-.319.01-3.193.145-4.581 2.827l-.095.183-.197.063c-.3.096-2.867.943-3.516 3.748l-.09.387H23.88c-.54 0-.972.38-1.043.857h0L19.51 61.368h0a.956.956 0 00.241.782m48.412-23.19L19.751 62.15m48.412-23.19l3.327 22.408a.958.958 0 01-.241.782m-3.086-23.19l3.086 23.19m-51.498 0c.198.22.49.35.802.35h49.894c.312 0 .604-.13.802-.35m-51.498 0H71.25M34.338 34.14h0a2.034 2.034 0 01-1.691 1.454 2.461 2.461 0 00-.245.166 9.848 9.848 0 00-1.393 1.345h29.055a14.25 14.25 0 00-.628-.864 9.11 9.11 0 00-.472-.56 2.744 2.744 0 00-.099-.1 2.03 2.03 0 01-1.607-1.441h-22.92zm0 0c.096-.347.508-.745 1.15-1.046.626-.293 1.299-.412 1.714-.345a2.075 2.075 0 002.092-.927c.213-.339.637-.63 1.155-.777.518-.147 1.044-.128 1.427.053a2.1 2.1 0 002.275-.316c.307-.271.805-.435 1.348-.435s1.041.163 1.35.435a2.1 2.1 0 002.275.316h0M34.338 34.14l14.786-3.042m0 0c.368-.174 1.043-.206 1.743-.049.338.076.655.19.912.332.262.143.433.299.522.44m-3.177-.723l5.27 1.651m0 0h0a2.076 2.076 0 01-2.093-.927m2.093.927c.424-.069 1.097.054 1.721.35m-1.72-.35l1.72.35m-3.814-1.277l.424-.266-.424.266s0 0 0 0zm3.814 1.277c.64.304 1.049.702 1.143 1.04l-1.143-1.04zm-23.633 1.508h0a.973.973 0 00-.37.14 3.445 3.445 0 00-.314.217 9.138 9.138 0 00-.753.649c-.525.501-1.118 1.16-1.44 1.752l-.403.74H61.798l-.404-.74A13.344 13.344 0 0059.695 35a2.999 2.999 0 00-.21-.207 1.08 1.08 0 00-.112-.088l-.002-.001a.593.593 0 00-.257-.097h0a1.036 1.036 0 01-.893-.735h0c-.213-.769-.96-1.337-1.677-1.676-.733-.348-1.618-.547-2.31-.434a1.077 1.077 0 01-1.086-.472h0c-.21-.336-.538-.594-.888-.786a4.527 4.527 0 00-1.174-.43c-.8-.18-1.733-.19-2.388.12a1.1 1.1 0 01-1.188-.163h0c-.54-.475-1.298-.684-2.011-.684-.713 0-1.47.21-2.009.684h0a1.1 1.1 0 01-1.188.162h0c-.655-.309-1.442-.305-2.126-.11-.684.194-1.35.603-1.729 1.207h0a1.075 1.075 0 01-1.084.472h0c-.682-.11-1.565.082-2.3.427-.719.337-1.472.904-1.689 1.683a1.036 1.036 0 01-.892.735zm.186.976h-.002.002zM20.062 61.658l-.088.575h51.051l-.087-.575-3.479-22.862-.064-.424h-43.79l-.064.424-3.48 22.862z" fill="#FFFDFB" stroke="#FFFDFB"/></svg>
