<svg width="22" height="22" fill="none" xmlns="http://www.w3.org/2000/svg"><circle cx="11" cy="11" r="11" fill="#FFFDFB"/><path d="M13.105 11a2.106 2.106 0 11-4.21 0 2.106 2.106 0 014.21 0z" fill="#1A212F"/><path d="M15.924 7.275a1.958 1.958 0 00-.473-.726 1.956 1.956 0 00-.726-.473c-.222-.086-.557-.19-1.173-.217-.666-.03-.865-.037-2.552-.037s-1.886.006-2.552.037c-.616.028-.95.13-1.173.217a1.954 1.954 0 00-.726.473c-.21.203-.372.451-.473.726-.087.222-.19.557-.217 1.173-.03.666-.037.866-.037 2.552 0 1.687.006 1.886.037 2.553.028.615.13.95.217 1.172.101.275.263.523.472.727.204.21.452.371.727.472.222.087.557.19 1.173.218.666.03.865.037 2.552.037s1.886-.007 2.552-.037c.616-.028.95-.131 1.173-.218.551-.212.986-.648 1.199-1.199.086-.222.19-.556.218-1.172.03-.667.036-.866.036-2.553 0-1.686-.006-1.886-.037-2.552-.028-.616-.13-.95-.217-1.173zM11 14.243a3.243 3.243 0 110-6.486 3.243 3.243 0 010 6.486zm3.372-5.857a.758.758 0 110-1.516.758.758 0 010 1.516z" fill="#1A212F"/><path d="M11 0C4.926 0 0 4.926 0 11s4.926 11 11 11 11-4.926 11-11S17.074 0 11 0zm6.278 13.604c-.03.673-.137 1.132-.293 1.533a3.23 3.23 0 01-1.848 1.848c-.401.156-.86.263-1.533.293-.673.031-.888.038-2.604.038-1.715 0-1.93-.007-2.604-.038-.672-.03-1.132-.137-1.533-.293a3.095 3.095 0 01-1.12-.729 3.095 3.095 0 01-.728-1.119c-.156-.401-.263-.86-.293-1.533-.031-.673-.038-.889-.038-2.604s.007-1.93.038-2.604c.03-.673.137-1.132.293-1.533.159-.422.407-.804.729-1.12.315-.32.697-.57 1.119-.728.401-.156.86-.263 1.533-.293.673-.031.889-.038 2.604-.038s1.93.007 2.604.038c.673.03 1.132.137 1.533.293.422.159.804.407 1.12.729.32.315.57.697.728 1.119.156.401.263.86.294 1.533.03.673.037.889.037 2.604s-.007 1.93-.038 2.604z" fill="#1A212F"/></svg>
