<svg width="34" height="34" fill="none" xmlns="http://www.w3.org/2000/svg"><path d="M34 17c0 4.54-1.768 8.81-4.98 12.02A16.89 16.89 0 0117.003 34H17c-4.54 0-8.81-1.768-12.02-4.98A16.89 16.89 0 010 17c0-4.54 1.768-8.81 4.98-12.02C8.19 1.767 12.46 0 17 0h.002c4.54 0 8.809 1.77 12.019 4.98C32.23 8.19 34 12.46 34 17z" fill="#FFFEFD"/><path d="M23.425 14.662c-2.8 1.606-2.323 6.293.714 6.293 1.31 0 2.444-.985 2.948-2.244 1.166-2.907-1.258-5.428-3.662-4.049zM20.55 15.242c3.359 0 4.365-5.704 1.173-6.642-1.454-.427-3.107.598-3.638 2.472-.596 2.1.576 4.17 2.465 4.17z" fill="#FF7236"/><path d="M19.685 25.396c-.466-.129-1.294-.212-2.16-.224-.917-.013-1.876.053-2.496.224-1.677.467-3.957-.662-3.457-3.008.463-2.17 2.126-2.046 2.52-4.101.396-2.078 1.935-3.08 3.432-3.002 1.386.073 2.734 1.072 3.101 3.002.391 2.057 2.05 1.932 2.513 4.1.502 2.349-1.783 3.472-3.453 3.01zM14.637 15.243c.95 0 1.766-.552 2.22-1.397 1.348-2.511-.866-5.988-3.394-5.244-3.197.94-2.183 6.64 1.174 6.64z" fill="#FF7236"/><path d="M13.119 19.087c1.078-2.639-1.478-5.862-3.92-4.848-2.941 1.221-1.644 6.49 1.59 6.49 1.038 0 1.92-.639 2.33-1.642zM19.686 25.396c-.467-.129-1.295-.212-2.162-.224v-9.887c1.386.073 2.734 1.072 3.101 3.002.391 2.057 2.051 1.932 2.513 4.1.502 2.348-1.783 3.472-3.453 3.01z" fill="#FF7236"/></svg>
