<svg width="22" height="22" fill="none" xmlns="http://www.w3.org/2000/svg"><path d="M11 22c6.075 0 11-4.925 11-11S17.075 0 11 0 0 4.925 0 11s4.925 11 11 11z" fill="#1A212F"/><path fill-rule="evenodd" clip-rule="evenodd" d="M10.584 15.824h.864s.26-.028.394-.172c.122-.131.118-.379.118-.379s-.017-1.159.521-1.33c.53-.167 1.21 1.12 1.932 1.616.546.374.96.292.96.292l1.93-.027s1.008-.062.53-.855c-.04-.065-.279-.587-1.434-1.66-1.21-1.122-1.048-.94.409-2.882.887-1.183 1.242-1.905 1.131-2.214-.105-.295-.758-.217-.758-.217l-2.172.014s-.16-.022-.28.049c-.117.07-.192.233-.192.233s-.344.915-.802 1.694c-.967 1.642-1.354 1.728-1.512 1.627-.368-.238-.276-.955-.276-1.465 0-1.591.241-2.255-.47-2.426-.236-.058-.41-.095-1.014-.101-.775-.008-1.43.002-1.802.184-.247.121-.437.39-.321.406.143.02.468.088.64.323.223.302.215.982.215.982s.128 1.874-.298 2.107c-.293.16-.695-.167-1.557-1.657a13.85 13.85 0 01-.775-1.606s-.064-.158-.18-.242c-.138-.103-.333-.135-.333-.135l-2.064.013s-.31.01-.423.144c-.101.12-.008.367-.008.367s1.615 3.78 3.445 5.686c1.677 1.746 3.582 1.631 3.582 1.631z" fill="#FFFDFB"/></svg>
